<svg xmlns="http://www.w3.org/2000/svg" width="980" height="861.515" viewBox="0 0 980 861.515">
  <g id="メインビジュアル" transform="translate(-194.401 193.611)">
    <g id="グループ_150" data-name="グループ 150" transform="translate(174.171 19.064)">
      <g id="グループ_38" data-name="グループ 38" transform="translate(941.668 101.579)">
        <g id="グループ_37" data-name="グループ 37">
          <g id="グループ_36" data-name="グループ 36">
            <path id="パス_12" data-name="パス 12" d="M1022.759,129.636l-18.229,13.5,18.968,13.781-20.141,14.917-38.42-27.914,38.37-28.417Z" transform="translate(-964.936 -115.503)" fill="#e4e4ea"/>
          </g>
        </g>
      </g>
      <g id="グループ_64" data-name="グループ 64" transform="translate(902.079 87.521)">
        <g id="グループ_51" data-name="グループ 51" transform="translate(20.093)">
          <g id="グループ_50" data-name="グループ 50">
            <g id="グループ_49" data-name="グループ 49">
              <g id="グループ_46" data-name="グループ 46">
                <path id="パス_15" data-name="パス 15" d="M972,102.178,951.855,117.1,931.68,102.441l20.146-14.92Z" transform="translate(-931.68 -87.521)" fill="#b1b1b1"/>
              </g>
              <g id="グループ_47" data-name="グループ 47" transform="translate(20.174 14.657)">
                <path id="パス_16" data-name="パス 16" d="M981.547,109.114l.3,23.066L961.7,147.1l-.3-23.066Z" transform="translate(-961.401 -109.114)" fill="#929292"/>
              </g>
              <g id="グループ_48" data-name="グループ 48" transform="translate(0 14.92)">
                <path id="パス_17" data-name="パス 17" d="M951.855,124.158l.3,23.066-20.174-14.657-.3-23.066Z" transform="translate(-931.68 -109.501)" fill="#bebebe"/>
              </g>
            </g>
          </g>
        </g>
        <g id="グループ_57" data-name="グループ 57" transform="translate(0 28.942)">
          <g id="グループ_56" data-name="グループ 56">
            <g id="グループ_55" data-name="グループ 55">
              <g id="グループ_52" data-name="グループ 52">
                <path id="パス_18" data-name="パス 18" d="M942.4,157.879,922.254,172.8l-20.174-14.658,20.146-14.92Z" transform="translate(-902.079 -143.221)" fill="#b1b1b1"/>
              </g>
              <g id="グループ_53" data-name="グループ 53" transform="translate(20.174 14.658)">
                <path id="パス_19" data-name="パス 19" d="M951.946,164.815l.3,23.066L932.1,202.8l-.3-23.066Z" transform="translate(-931.8 -164.815)" fill="#929292"/>
              </g>
              <g id="グループ_54" data-name="グループ 54" transform="translate(0 14.92)">
                <path id="パス_20" data-name="パス 20" d="M922.254,179.859l.3,23.066-20.175-14.658-.3-23.066Z" transform="translate(-902.079 -165.202)" fill="#bebebe"/>
              </g>
            </g>
          </g>
        </g>
        <g id="グループ_63" data-name="グループ 63" transform="translate(40.321 28.942)">
          <g id="グループ_62" data-name="グループ 62">
            <g id="グループ_61" data-name="グループ 61">
              <g id="グループ_58" data-name="グループ 58">
                <path id="パス_21" data-name="パス 21" d="M1001.8,157.879,981.654,172.8,961.48,158.142l20.146-14.92Z" transform="translate(-961.48 -143.222)" fill="#b1b1b1"/>
              </g>
              <g id="グループ_59" data-name="グループ 59" transform="translate(20.174 14.657)">
                <path id="パス_22" data-name="パス 22" d="M1011.346,164.815l.3,23.066L991.5,202.8l-.3-23.066Z" transform="translate(-991.2 -164.815)" fill="#929292"/>
              </g>
              <g id="グループ_60" data-name="グループ 60" transform="translate(0 14.92)">
                <path id="パス_23" data-name="パス 23" d="M981.654,179.859l.3,23.066-20.174-14.657-.3-23.066Z" transform="translate(-961.48 -165.202)" fill="#bebebe"/>
              </g>
            </g>
          </g>
        </g>
      </g>
    </g>
    <g id="グループ_151" data-name="グループ 151" transform="translate(646.643 188.007)">
      <g id="グループ_41" data-name="グループ 41" transform="translate(39.857 7.86)">
        <g id="グループ_40" data-name="グループ 40">
          <g id="グループ_39" data-name="グループ 39">
            <path id="パス_13" data-name="パス 13" d="M744.954,195.9l-21.9,16.218L689.71,187.893l21.9-16.218Z" transform="translate(-689.71 -171.675)" fill="#e4e4ea"/>
          </g>
        </g>
      </g>
      <g id="グループ_70" data-name="グループ 70">
        <g id="グループ_69" data-name="グループ 69">
          <g id="グループ_68" data-name="グループ 68">
            <g id="グループ_65" data-name="グループ 65">
              <path id="パス_24" data-name="パス 24" d="M700.412,185.851,664.24,212.64l-36.269-26.351L664.143,159.5Z" transform="translate(-627.971 -159.5)" fill="#c00046"/>
            </g>
            <g id="グループ_66" data-name="グループ 66" transform="translate(36.269 26.351)">
              <path id="パス_25" data-name="パス 25" d="M720.323,200.318l.284,21.937-36.172,26.789-.284-21.937Z" transform="translate(-684.151 -200.318)" fill="#9e003a"/>
            </g>
            <g id="グループ_67" data-name="グループ 67" transform="translate(0 26.789)">
              <path id="パス_26" data-name="パス 26" d="M664.24,227.348l.284,21.937-36.269-26.351L627.971,201Z" transform="translate(-627.971 -200.997)" fill="#ce004b"/>
            </g>
          </g>
        </g>
      </g>
    </g>
    <g id="グループ_152" data-name="グループ 152" transform="translate(797.604 237.57)">
      <g id="グループ_44" data-name="グループ 44" transform="translate(11.67 7.368)">
        <g id="グループ_43" data-name="グループ 43">
          <g id="グループ_42" data-name="グループ 42">
            <path id="パス_14" data-name="パス 14" d="M823.724,267.91l-7.65,5.666-11.4-8.282,7.65-5.666Z" transform="translate(-804.676 -259.628)" fill="#e4e4ea"/>
          </g>
        </g>
      </g>
      <g id="グループ_76" data-name="グループ 76">
        <g id="グループ_75" data-name="グループ 75">
          <g id="グループ_74" data-name="グループ 74">
            <g id="グループ_71" data-name="グループ 71">
              <path id="パス_27" data-name="パス 27" d="M814.19,259.533l-11.382,8.43-11.393-8.277,11.382-8.43Z" transform="translate(-791.415 -251.255)" fill="#c00046"/>
            </g>
            <g id="グループ_72" data-name="グループ 72" transform="translate(11.393 8.277)">
              <path id="パス_28" data-name="パス 28" d="M815.744,260.661l.169,13.029-11.382,8.43-.169-13.029Z" transform="translate(-804.361 -260.661)" fill="#9e003a"/>
            </g>
            <g id="グループ_73" data-name="グループ 73" transform="translate(0 8.43)">
              <path id="パス_29" data-name="パス 29" d="M802.808,269.112l.169,13.029-11.393-8.277-.169-13.029Z" transform="translate(-791.415 -260.835)" fill="#ce004b"/>
            </g>
          </g>
        </g>
      </g>
    </g>
    <g id="グループ_153" data-name="グループ 153" transform="translate(726.744 248.685)">
      <g id="グループ_35" data-name="グループ 35" transform="translate(23.073 6.59)">
        <g id="グループ_34" data-name="グループ 34">
          <g id="グループ_33" data-name="グループ 33">
            <path id="パス_11" data-name="パス 11" d="M926.859,275.8l-16.973,12.57-23.229-16.877,16.973-12.57Z" transform="translate(-886.657 -258.921)" fill="#e4e4ea"/>
          </g>
        </g>
      </g>
      <g id="グループ_82" data-name="グループ 82" transform="translate(0)">
        <g id="グループ_81" data-name="グループ 81">
          <g id="グループ_80" data-name="グループ 80">
            <g id="グループ_77" data-name="グループ 77">
              <path id="パス_30" data-name="パス 30" d="M906.85,268.3l-23.19,17.175-23.223-16.872,23.19-17.175Z" transform="translate(-860.438 -251.432)" fill="#c00046"/>
            </g>
            <g id="グループ_78" data-name="グループ 78" transform="translate(23.223 16.872)">
              <path id="パス_31" data-name="パス 31" d="M910.017,270.605l.248,19.138-23.19,17.175-.248-19.138Z" transform="translate(-886.827 -270.605)" fill="#9e003a"/>
            </g>
            <g id="グループ_79" data-name="グループ 79" transform="translate(0 17.175)">
              <path id="パス_32" data-name="パス 32" d="M883.661,287.821l.248,19.138-23.223-16.872-.248-19.138Z" transform="translate(-860.438 -270.949)" fill="#ce004b"/>
            </g>
          </g>
        </g>
      </g>
    </g>
    <g id="グループ_148" data-name="グループ 148" transform="translate(-74.591 -193.486)">
      <g id="グループ_8" data-name="グループ 8" transform="translate(1183.247 500.914)">
        <g id="グループ_7" data-name="グループ 7">
          <g id="グループ_6" data-name="グループ 6">
            <path id="パス_2" data-name="パス 2" d="M994.693,543.553l-22.98,17.019-42.427-30.825,22.98-17.019Z" transform="translate(-929.287 -512.728)" fill="#e4e4ea"/>
          </g>
        </g>
      </g>
      <g id="グループ_11" data-name="グループ 11" transform="translate(1103.77 558.642)">
        <g id="グループ_10" data-name="グループ 10">
          <g id="グループ_9" data-name="グループ 9">
            <path id="パス_3" data-name="パス 3" d="M955.588,571.956l-22.98,17.019-42.427-30.825,22.98-17.019Z" transform="translate(-890.182 -541.132)" fill="#e4e4ea"/>
          </g>
        </g>
      </g>
      <g id="グループ_14" data-name="グループ 14" transform="translate(796.324 782.002)">
        <g id="グループ_13" data-name="グループ 13">
          <g id="グループ_12" data-name="グループ 12">
            <path id="パス_4" data-name="パス 4" d="M804.316,681.856l-22.98,17.019L738.91,668.05l22.98-17.019Z" transform="translate(-738.91 -651.031)" fill="#e4e4ea"/>
          </g>
        </g>
      </g>
      <g id="グループ_20" data-name="グループ 20" transform="translate(947.284 672.453)">
        <g id="グループ_19" data-name="グループ 19">
          <g id="グループ_18" data-name="グループ 18">
            <path id="パス_6" data-name="パス 6" d="M878.593,627.955l-22.98,17.019-42.427-30.825,22.98-17.019Z" transform="translate(-813.187 -597.13)" fill="#e4e4ea"/>
          </g>
        </g>
      </g>
      <g id="グループ_23" data-name="グループ 23" transform="translate(992.221 475.911)">
        <g id="グループ_22" data-name="グループ 22">
          <g id="グループ_21" data-name="グループ 21">
            <path id="パス_7" data-name="パス 7" d="M927.585,550.782,904.606,567.8,835.3,517.445l22.98-17.019Z" transform="translate(-835.297 -500.426)" fill="#e4e4ea"/>
          </g>
        </g>
      </g>
      <g id="グループ_26" data-name="グループ 26" transform="translate(1071.485 418.398)">
        <g id="グループ_25" data-name="グループ 25" transform="translate(0 0)">
          <g id="グループ_24" data-name="グループ 24">
            <path id="パス_8" data-name="パス 8" d="M966.573,522.483l-22.967,17.009L874.3,489.137l22.967-17.009Z" transform="translate(-874.297 -472.128)" fill="#e4e4ea"/>
          </g>
        </g>
      </g>
      <g id="グループ_29" data-name="グループ 29" transform="translate(914.993 532.213)">
        <g id="グループ_28" data-name="グループ 28">
          <g id="グループ_27" data-name="グループ 27">
            <path id="パス_9" data-name="パス 9" d="M889.587,578.484,866.608,595.5,797.3,545.147l22.98-17.019Z" transform="translate(-797.299 -528.128)" fill="#e4e4ea"/>
          </g>
        </g>
      </g>
      <g id="グループ_32" data-name="グループ 32" transform="translate(835.718 589.722)">
        <g id="グループ_31" data-name="グループ 31">
          <g id="グループ_30" data-name="グループ 30">
            <path id="パス_10" data-name="パス 10" d="M850.582,606.78,827.6,623.8l-69.309-50.356,22.979-17.019Z" transform="translate(-758.293 -556.424)" fill="#e4e4ea"/>
          </g>
        </g>
      </g>
      <g id="グループ_121" data-name="グループ 121" transform="translate(641.958 398.18)">
        <g id="グループ_120" data-name="グループ 120">
          <g id="グループ_86" data-name="グループ 86" transform="translate(386.823)">
            <g id="グループ_83" data-name="グループ 83" transform="translate(0.466)">
              <path id="パス_33" data-name="パス 33" d="M896.058,462.18l69.533,51.5-42.543,30.909-69.534-51.5Z" transform="translate(-853.515 -462.18)" fill="#d4004e"/>
            </g>
            <g id="グループ_84" data-name="グループ 84" transform="translate(69.534 51.497)">
              <path id="パス_34" data-name="パス 34" d="M930.507,487.518l-.466,35.909L887.5,554.336l.466-35.908Z" transform="translate(-887.498 -487.518)" fill="#b70043"/>
            </g>
            <g id="グループ_85" data-name="グループ 85" transform="translate(0 30.909)">
              <path id="パス_35" data-name="パス 35" d="M923.285,528.885l-.466,35.909-69.533-51.5.466-35.909Z" transform="translate(-853.286 -477.388)" fill="#9e003a"/>
            </g>
          </g>
          <g id="グループ_90" data-name="グループ 90" transform="translate(307.186 57.86)">
            <g id="グループ_87" data-name="グループ 87" transform="translate(0.466)">
              <path id="パス_36" data-name="パス 36" d="M856.874,490.648l69.533,51.5-42.543,30.909-69.534-51.5Z" transform="translate(-814.331 -490.648)" fill="#d4004e"/>
            </g>
            <g id="グループ_88" data-name="グループ 88" transform="translate(69.534 51.497)">
              <path id="パス_37" data-name="パス 37" d="M891.323,515.987l-.466,35.908L848.314,582.8l.465-35.909Z" transform="translate(-848.314 -515.987)" fill="#b70043"/>
            </g>
            <g id="グループ_89" data-name="グループ 89" transform="translate(0 30.909)">
              <path id="パス_38" data-name="パス 38" d="M884.1,557.354l-.466,35.908-69.534-51.5.465-35.909Z" transform="translate(-814.102 -505.857)" fill="#9e003a"/>
            </g>
          </g>
          <g id="グループ_94" data-name="グループ 94" transform="translate(229.814 114.065)">
            <g id="グループ_91" data-name="グループ 91" transform="translate(0.466)">
              <path id="パス_39" data-name="パス 39" d="M818.818,518.3l69.533,51.5L845.8,600.719l-69.534-51.5Z" transform="translate(-776.262 -518.303)" fill="#d4004e"/>
            </g>
            <g id="グループ_92" data-name="グループ 92" transform="translate(69.534 51.497)">
              <path id="パス_40" data-name="パス 40" d="M853.266,543.641l-.466,35.909-42.556,30.919.466-35.909Z" transform="translate(-810.245 -543.641)" fill="#b70043"/>
            </g>
            <g id="グループ_93" data-name="グループ 93" transform="translate(0 30.919)">
              <path id="パス_41" data-name="パス 41" d="M846.032,585.013l-.466,35.909-69.534-51.5.466-35.909Z" transform="translate(-776.033 -533.516)" fill="#9e003a"/>
            </g>
          </g>
          <g id="グループ_98" data-name="グループ 98" transform="translate(150.862 171.426)">
            <g id="グループ_95" data-name="グループ 95" transform="translate(0.466)">
              <path id="パス_42" data-name="パス 42" d="M779.971,546.526l69.534,51.5-42.556,30.919-69.533-51.5Z" transform="translate(-737.416 -546.526)" fill="#d4004e"/>
            </g>
            <g id="グループ_96" data-name="グループ 96" transform="translate(69.534 51.497)">
              <path id="パス_43" data-name="パス 43" d="M814.42,571.864l-.466,35.909L771.4,638.691l.466-35.909Z" transform="translate(-771.399 -571.864)" fill="#b70043"/>
            </g>
            <g id="グループ_97" data-name="グループ 97" transform="translate(0 30.919)">
              <path id="パス_44" data-name="パス 44" d="M807.186,613.236l-.466,35.909-69.533-51.5.466-35.908Z" transform="translate(-737.186 -561.739)" fill="#9e003a"/>
            </g>
          </g>
          <g id="グループ_102" data-name="グループ 102" transform="translate(498.839 82.96)">
            <g id="グループ_99" data-name="グループ 99" transform="translate(0.466)">
              <path id="パス_45" data-name="パス 45" d="M951.173,503l42.5,31.473L951.125,565.38l-42.5-31.473Z" transform="translate(-908.63 -502.998)" fill="#d4004e"/>
            </g>
            <g id="グループ_100" data-name="グループ 100" transform="translate(42.496 31.473)">
              <path id="パス_46" data-name="パス 46" d="M972.318,518.484l-.466,35.909L929.31,585.3l.465-35.909Z" transform="translate(-929.31 -518.484)" fill="#b70043"/>
            </g>
            <g id="グループ_101" data-name="グループ 101" transform="translate(0 30.909)">
              <path id="パス_47" data-name="パス 47" d="M951.362,549.679l-.466,35.909-42.5-31.472.466-35.909Z" transform="translate(-908.401 -518.207)" fill="#9e003a"/>
            </g>
          </g>
          <g id="グループ_106" data-name="グループ 106" transform="translate(341.83 140.82)">
            <g id="グループ_103" data-name="グループ 103" transform="translate(0.466)">
              <path id="パス_48" data-name="パス 48" d="M951.292,531.467l42.5,31.473L873.872,650.063l-42.5-31.472Z" transform="translate(-831.377 -531.467)" fill="#d4004e"/>
            </g>
            <g id="グループ_104" data-name="グループ 104" transform="translate(42.496 31.473)">
              <path id="パス_49" data-name="パス 49" d="M972.438,546.952l-.466,35.909L852.057,669.985l.466-35.908Z" transform="translate(-852.057 -546.952)" fill="#b70043"/>
            </g>
            <g id="グループ_105" data-name="グループ 105" transform="translate(0 87.124)">
              <path id="パス_50" data-name="パス 50" d="M874.109,605.807l-.466,35.908-42.5-31.473.466-35.908Z" transform="translate(-831.148 -574.334)" fill="#9e003a"/>
            </g>
          </g>
          <g id="グループ_115" data-name="グループ 115" transform="translate(73.503 227.64)">
            <g id="グループ_107" data-name="グループ 107" transform="translate(197.055 58.219)">
              <path id="パス_51" data-name="パス 51" d="M873.918,602.83l-.466,35.909L796.08,694.953l.466-35.908Z" transform="translate(-796.08 -602.83)" fill="#b70043"/>
            </g>
            <g id="グループ_108" data-name="グループ 108" transform="translate(112.016 82.96)">
              <path id="パス_52" data-name="パス 52" d="M797.247,615l-.466,35.909-42.543,30.909.466-35.908Z" transform="translate(-754.239 -615.004)" fill="#b70043"/>
            </g>
            <g id="グループ_109" data-name="グループ 109" transform="translate(0 30.909)">
              <path id="パス_53" data-name="パス 53" d="M854.1,703.826l-.466,35.909L699.124,625.3l.466-35.909Z" transform="translate(-699.124 -589.393)" fill="#9e003a"/>
            </g>
            <g id="グループ_110" data-name="グループ 110" transform="translate(112.482 26.746)">
              <path id="パス_54" data-name="パス 54" d="M874.383,587.345l42.5,31.473-77.372,56.214-42.543,30.909-42.5-31.473,42.543-30.909Z" transform="translate(-754.468 -587.345)" fill="#d4004e"/>
            </g>
            <g id="グループ_111" data-name="グループ 111" transform="translate(154.512 114.433)">
              <path id="パス_55" data-name="パス 55" d="M818.156,630.489l-.466,35.909-42.543,30.909.466-35.909Z" transform="translate(-775.148 -630.489)" fill="#b70043"/>
            </g>
            <g id="グループ_112" data-name="グループ 112" transform="translate(0.466)">
              <path id="パス_56" data-name="パス 56" d="M741.9,574.185l112.016,82.96-42.543,30.91,42.5,31.472,42.543-30.909-42.543,30.909L699.353,605.094Z" transform="translate(-699.353 -574.185)" fill="#d4004e"/>
            </g>
            <g id="グループ_113" data-name="グループ 113" transform="translate(112.016 113.87)">
              <path id="パス_57" data-name="パス 57" d="M797.2,661.685l-.466,35.909-42.5-31.473.466-35.909Z" transform="translate(-754.239 -630.212)" fill="#9e003a"/>
            </g>
            <g id="グループ_114" data-name="グループ 114" transform="translate(154.512 114.433)">
              <path id="パス_58" data-name="パス 58" d="M818.156,630.489l-.466,35.909-42.543,30.909.466-35.909Z" transform="translate(-775.148 -630.489)" fill="#b70043"/>
            </g>
          </g>
          <g id="グループ_119" data-name="グループ 119" transform="translate(0 281.034)">
            <g id="グループ_116" data-name="グループ 116" transform="translate(0.466)">
              <path id="パス_59" data-name="パス 59" d="M705.744,600.456,860.255,714.889,817.7,745.808,663.187,631.375Z" transform="translate(-663.187 -600.456)" fill="#d4004e"/>
            </g>
            <g id="グループ_117" data-name="グループ 117" transform="translate(154.512 114.433)">
              <path id="パス_60" data-name="パス 60" d="M782,656.76l-.465,35.909-42.557,30.919.466-35.909Z" transform="translate(-738.982 -656.76)" fill="#b70043"/>
            </g>
            <g id="グループ_118" data-name="グループ 118" transform="translate(0 30.919)">
              <path id="パス_61" data-name="パス 61" d="M817.936,730.1l-.466,35.909L662.958,651.578l.466-35.908Z" transform="translate(-662.958 -615.669)" fill="#9e003a"/>
            </g>
          </g>
        </g>
      </g>
    </g>
    <g id="グループ_127" data-name="グループ 127" transform="translate(413 342)">
      <g id="グループ_126" data-name="グループ 126" transform="translate(-108.599 -535.611)">
        <g id="グループ_125" data-name="グループ 125">
          <g id="グループ_122" data-name="グループ 122">
            <path id="パス_62" data-name="パス 62" d="M353.068-367.758,122.432-196.946-108.6-364.8,122.038-535.611Z" transform="translate(108.599 535.611)" fill="#5fa153"/>
          </g>
          <g id="グループ_123" data-name="グループ 123" transform="translate(231.03 167.853)">
            <path id="パス_63" data-name="パス 63" d="M638.719-160.221l.173,13.335L408.255,23.926l-.173-13.335Z" transform="translate(-408.082 160.221)" fill="#4e8545"/>
          </g>
          <g id="グループ_124" data-name="グループ 124" transform="translate(0 170.811)">
            <path id="パス_64" data-name="パス 64" d="M122.432,14.248l.173,13.335L-108.426-140.27l-.173-13.335Z" transform="translate(108.599 153.605)" fill="#66ad59"/>
          </g>
        </g>
      </g>
    </g>
    <g id="グループ_147" data-name="グループ 147" transform="translate(-32.496 114.131)">
      <g id="グループ_17" data-name="グループ 17" transform="translate(347.642 475.968)">
        <g id="グループ_16" data-name="グループ 16">
          <g id="グループ_15" data-name="グループ 15">
            <path id="パス_5" data-name="パス 5" d="M477.011,507.213,449.68,527.454l-35.854-26.049,27.331-20.242Z" transform="translate(-413.826 -481.164)" fill="#e4e4ea"/>
          </g>
        </g>
      </g>
      <g id="グループ_133" data-name="グループ 133" transform="translate(303.999 472.69)">
        <g id="グループ_132" data-name="グループ 132">
          <g id="グループ_131" data-name="グループ 131">
            <g id="グループ_128" data-name="グループ 128">
              <path id="パス_65" data-name="パス 65" d="M382.216,498.739l-42.363,31.375L304,504.065l42.363-31.375Z" transform="translate(-303.999 -472.69)" fill="#b1b1b1"/>
            </g>
            <g id="グループ_129" data-name="グループ 129" transform="translate(35.854 26.049)">
              <path id="パス_66" data-name="パス 66" d="M439.052,540.033l.307,23.66L397,595.067l-.307-23.66Z" transform="translate(-396.689 -540.033)" fill="#929292"/>
            </g>
            <g id="グループ_130" data-name="グループ 130" transform="translate(0 31.375)">
              <path id="パス_67" data-name="パス 67" d="M339.853,579.849l.307,23.66L304.306,577.46,304,553.8Z" transform="translate(-303.999 -553.8)" fill="#bebebe"/>
            </g>
          </g>
        </g>
      </g>
    </g>
    <g id="グループ_149" data-name="グループ 149" transform="translate(27.782 51.546)">
      <g id="グループ_5" data-name="グループ 5" transform="translate(1041.172 535.346)">
        <g id="グループ_4" data-name="グループ 4" transform="translate(0)">
          <g id="グループ_3" data-name="グループ 3">
            <path id="パス_1" data-name="パス 1" d="M1132.041,566.7l-30.406,22.519-39.964-29.036,30.406-22.519Z" transform="translate(-1061.67 -537.664)" fill="#e4e4ea"/>
          </g>
        </g>
      </g>
      <g id="グループ_139" data-name="グループ 139" transform="translate(999.098 530.589)">
        <g id="グループ_138" data-name="グループ 138">
          <g id="グループ_137" data-name="グループ 137">
            <g id="グループ_134" data-name="グループ 134">
              <path id="パス_68" data-name="パス 68" d="M1081.351,561.354l-39.908,29.556L999.1,560.145l39.908-29.556Z" transform="translate(-999.098 -530.589)" fill="#d5971b"/>
            </g>
            <g id="グループ_135" data-name="グループ 135" transform="translate(42.345 30.766)">
              <path id="パス_69" data-name="パス 69" d="M1101.981,576.343l.324,24.956L1062.4,630.855l-.323-24.956Z" transform="translate(-1062.073 -576.343)" fill="#b07d16"/>
            </g>
            <g id="グループ_136" data-name="グループ 136" transform="translate(0 29.556)">
              <path id="パス_70" data-name="パス 70" d="M1041.443,605.31l.323,24.956L999.422,599.5l-.324-24.956Z" transform="translate(-999.098 -574.544)" fill="#e5a31c"/>
            </g>
          </g>
        </g>
      </g>
    </g>
    <g id="グループ_142" data-name="グループ 142" transform="translate(194.401 484.426)">
      <text id="_-_科学を灯そう_-_イチヨンヨンラボ" data-name="- 科学を灯そう -
イチヨンヨンラボ" transform="translate(86 22)" fill="#d4004e" font-size="16" font-family="SegoeUI-Bold, Segoe UI" font-weight="700" letter-spacing="0.4em"><tspan x="-81.402" y="0">- </tspan><tspan y="0" font-family="YuGothicUI-Bold, Yu Gothic UI">科学を灯そう</tspan><tspan y="0" xml:space="preserve"> -</tspan><tspan font-size="12" font-family="YuGothicUI-Bold, Yu Gothic UI"><tspan x="-52.721" y="30">イチヨンヨンラボ</tspan></tspan></text>
    </g>
    <text id="Light_Up_Your_Science" data-name="Light Up 
Your
Science" transform="translate(194.401 273.924)" fill="#d4004e" font-size="76" font-family="SegoeUI, Segoe UI" letter-spacing="0.03em"><tspan x="0" y="0">Light Up </tspan><tspan x="0" y="87">Your</tspan><tspan x="0" y="174">Science</tspan></text>
  </g>
</svg>
